<?xml version="1.0" encoding="UTF-8"?>
<svg xmlns="http://www.w3.org/2000/svg" xmlns:xlink="http://www.w3.org/1999/xlink" width="50" height="50" viewBox="0 0 50 50" version="1.1">
<defs>
<linearGradient id="linear0" gradientUnits="userSpaceOnUse" x1="20.621258" y1="16.678968" x2="190.02657" y2="189.49789" gradientTransform="matrix(0.333333,0,0,0.333333,0,0)">
<stop offset="0" style="stop-color:rgb(18.431373%,18.431373%,22.352941%);stop-opacity:1;"/>
<stop offset="1" style="stop-color:rgb(57.647059%,57.647059%,65.098039%);stop-opacity:1;"/>
</linearGradient>
<linearGradient id="linear1" gradientUnits="userSpaceOnUse" x1="174.77054" y1="170.47469" x2="16.857574" y2="10.953424" gradientTransform="matrix(0.333333,0,0,0.333333,0,0)">
<stop offset="0" style="stop-color:rgb(95.686275%,95.686275%,96.470588%);stop-opacity:1;"/>
<stop offset="1" style="stop-color:rgb(63.137255%,63.529412%,75.294118%);stop-opacity:1;"/>
</linearGradient>
<linearGradient id="linear2" gradientUnits="userSpaceOnUse" x1="132.59375" y1="130.90257" x2="-30.518579" y2="-30.765875" gradientTransform="matrix(0.333333,0,0,0.333333,0,0)">
<stop offset="0" style="stop-color:rgb(95.686275%,95.686275%,96.470588%);stop-opacity:1;"/>
<stop offset="1" style="stop-color:rgb(63.137255%,63.529412%,75.294118%);stop-opacity:1;"/>
</linearGradient>
<linearGradient id="linear3" gradientUnits="userSpaceOnUse" x1="39.359585" y1="21.469936" x2="45.14185" y2="59.042255" gradientTransform="matrix(0.333333,0,0,0.333333,0,0)">
<stop offset="0" style="stop-color:rgb(95.686275%,95.686275%,96.470588%);stop-opacity:1;"/>
<stop offset="1" style="stop-color:rgb(100%,100%,100%);stop-opacity:0;"/>
</linearGradient>
<linearGradient id="linear4" gradientUnits="userSpaceOnUse" x1="105.72369" y1="85.294189" x2="96.720894" y2="92.09375" gradientTransform="matrix(0.333333,0,0,0.333333,0,0)">
<stop offset="0" style="stop-color:rgb(100%,100%,100%);stop-opacity:1;"/>
<stop offset="1" style="stop-color:rgb(100%,100%,100%);stop-opacity:0;"/>
</linearGradient>
<linearGradient id="linear5" gradientUnits="userSpaceOnUse" x1="253.14423" y1="111.46268" x2="270.63672" y2="107.22004" gradientTransform="matrix(0.333333,0,0,0.333333,-48.2011,0.117851)">
<stop offset="0" style="stop-color:rgb(95.686275%,95.686275%,96.470588%);stop-opacity:1;"/>
<stop offset="1" style="stop-color:rgb(63.137255%,63.529412%,75.294118%);stop-opacity:1;"/>
</linearGradient>
<linearGradient id="linear6" gradientUnits="userSpaceOnUse" x1="255.25127" y1="111.47541" x2="273.8187" y2="111.47541" gradientTransform="matrix(0.333333,0,0,0.333333,-48.2011,0.117851)">
<stop offset="0" style="stop-color:rgb(95.686275%,95.686275%,96.470588%);stop-opacity:1;"/>
<stop offset="1" style="stop-color:rgb(63.137255%,63.529412%,75.294118%);stop-opacity:1;"/>
</linearGradient>
<linearGradient id="linear7" gradientUnits="userSpaceOnUse" x1="260.55884" y1="38.834545" x2="271.94626" y2="50.614651" gradientTransform="matrix(0.333333,0,0,0.333333,-51.832467,-0.13089)">
<stop offset="0" style="stop-color:rgb(69.803922%,69.803922%,74.901961%);stop-opacity:1;"/>
<stop offset="1" style="stop-color:rgb(8.235294%,8.235294%,9.803922%);stop-opacity:1;"/>
</linearGradient>
<linearGradient id="linear8" gradientUnits="userSpaceOnUse" x1="95.437065" y1="54.315994" x2="99.909843" y2="58.712097" gradientTransform="matrix(0.333333,0,0,0.333333,0,0)">
<stop offset="0" style="stop-color:rgb(95.686275%,95.686275%,96.470588%);stop-opacity:1;"/>
<stop offset="1" style="stop-color:rgb(63.137255%,63.529412%,75.294118%);stop-opacity:1;"/>
</linearGradient>
<linearGradient id="linear9" gradientUnits="userSpaceOnUse" x1="117.93728" y1="39.26852" x2="131.3474" y2="19.276201" gradientTransform="matrix(0.333333,0,0,0.333333,0,0)">
<stop offset="0" style="stop-color:rgb(95.686275%,95.686275%,96.470588%);stop-opacity:1;"/>
<stop offset="1" style="stop-color:rgb(63.137255%,63.529412%,75.294118%);stop-opacity:1;"/>
</linearGradient>
<linearGradient id="linear10" gradientUnits="userSpaceOnUse" x1="28.837864" y1="139.09169" x2="70.107292" y2="50.836796" gradientTransform="matrix(0.333333,0,0,0.333333,0,0)">
<stop offset="0" style="stop-color:rgb(100%,21.568627%,17.254902%);stop-opacity:1;"/>
<stop offset="1" style="stop-color:rgb(63.137255%,12.156863%,9.411765%);stop-opacity:1;"/>
</linearGradient>
<linearGradient id="linear11" gradientUnits="userSpaceOnUse" x1="61.156227" y1="76.922729" x2="74.122025" y2="90.246391" gradientTransform="matrix(0.333333,0,0,0.333333,0,0)">
<stop offset="0" style="stop-color:rgb(100%,100%,100%);stop-opacity:1;"/>
<stop offset="1" style="stop-color:rgb(100%,100%,100%);stop-opacity:0;"/>
</linearGradient>
</defs>
<g id="surface1">
<path style=" stroke:none;fill-rule:nonzero;fill:url(#linear0);" d="M 19.359375 26.804688 C 19.359375 26.421875 18.6875 26.285156 16.851562 26.285156 C 10.050781 26.285156 4.996094 21.4375 4.988281 14.90625 C 4.984375 13.457031 5.238281 11.664062 5.546875 10.921875 C 6.457031 8.75 7.191406 9.085938 10.964844 12.878906 C 14.390625 16.320312 15.027344 17.378906 16.773438 15.46875 C 18.550781 13.53125 17.972656 13.097656 14.585938 9.730469 C 10.757812 5.921875 9.980469 5.222656 12.234375 4.277344 C 17.007812 2.285156 23.386719 4.707031 26.097656 9.542969 C 27.078125 11.289062 27.304688 12.1875 27.445312 14.855469 C 27.597656 17.714844 27.730469 18.179688 28.648438 19.0625 C 39.816406 30.382812 25.621094 16.035156 38.863281 29.390625 C 43.210938 33.734375 46.101562 36.582031 45.78125 36.972656 C 45.429688 37.871094 38.847656 44.558594 38.226562 44.546875 C 38.003906 44.78125 34.757812 41.601562 31.183594 38.050781 C 19.632812 26.71875 32.644531 39.261719 19.359375 26.804688 Z M 19.359375 26.804688 "/>
<path style=" stroke:none;fill-rule:nonzero;fill:url(#linear1);" d="M 15.355469 4.261719 C 14.183594 4.4375 12.367188 4.519531 11.667969 5.511719 C 13.425781 8.425781 16.980469 10.140625 18.375 13.3125 C 18.550781 15.023438 16.960938 16.742188 15.34375 17.074219 C 12.890625 16.769531 11.664062 14.074219 9.824219 12.6875 C 8.820312 11.933594 7.941406 10.398438 6.65625 10.3125 C 5.074219 13.128906 5.4375 16.996094 6.832031 19.894531 C 8.921875 24.105469 13.925781 25.742188 18.792969 25.421875 C 20.886719 25.523438 20.503906 26.921875 22.484375 28.773438 C 27.671875 33.488281 31.945312 37.941406 38.292969 43.824219 C 40.710938 41.410156 42.554688 39.5625 45.03125 36.917969 C 38.636719 29.90625 32.367188 24.203125 26.71875 17.917969 C 26.679688 16.65625 27.386719 12.109375 25.269531 9.449219 C 23.160156 6.140625 19.261719 4.085938 15.355469 4.261719 Z M 11.65625 5.40625 L 11.644531 5.417969 Z M 11.65625 5.40625 "/>
<path style=" stroke:none;fill-rule:nonzero;fill:url(#linear2);" d="M 15.375 4.925781 C 14.484375 5.097656 13.195312 5.078125 12.5625 5.65625 C 14.480469 8.492188 18.308594 10.15625 19.050781 13.675781 C 18.980469 16.308594 15.675781 18.9375 13.332031 17.011719 C 11.074219 15.238281 9.375 12.769531 7.019531 11.082031 C 4.816406 16.140625 7.65625 22.789062 13.074219 24.324219 C 15.097656 25.253906 18.128906 24.363281 20.207031 24.90625 C 26.449219 31.242188 32.007812 37.113281 38.363281 42.925781 C 40.660156 40.71875 42.1875 39.175781 44.199219 36.957031 C 38.167969 30.613281 31.582031 24.339844 26.09375 18.039062 C 26.121094 15.304688 26.773438 11.597656 24.125 8.988281 C 22.097656 6.394531 18.742188 4.777344 15.375 4.925781 Z M 15.375 4.925781 "/>
<path style=" stroke:none;fill-rule:nonzero;fill:url(#linear3);" d="M 15.394531 5.59375 C 14.09375 5.621094 12.929688 5.867188 14.519531 6.925781 C 16.582031 8.960938 19.792969 11.035156 19.65625 14.300781 C 19.25 17.335938 15.132812 19.742188 12.699219 17.355469 C 10.785156 15.863281 9.136719 13.496094 7.300781 12.25 C 5.671875 17.386719 9.265625 23.242188 14.769531 24.0625 C 19.898438 23.789062 23.917969 23.214844 25.28125 18.90625 C 25.929688 14.292969 25.183594 11.921875 23.03125 8.730469 C 21.074219 6.675781 18.230469 5.460938 15.394531 5.59375 Z M 15.394531 5.59375 "/>
<path style=" stroke:none;fill-rule:nonzero;fill:url(#linear4);" d="M 25.832031 19.386719 C 24.359375 21.621094 22.773438 23.363281 20.527344 24.671875 C 26.164062 30.804688 32.234375 36.453125 38.355469 42.082031 C 40.199219 40.101562 41.742188 38.730469 43.363281 37 C 37.304688 30.554688 31.421875 25.464844 25.875 19.3125 Z M 25.832031 19.386719 "/>
<path style=" stroke:none;fill-rule:nonzero;fill:url(#linear5);" d="M 40.539062 37.273438 C 40.542969 38.445312 39.566406 39.394531 38.359375 39.394531 C 37.15625 39.394531 36.179688 38.445312 36.179688 37.273438 C 36.179688 36.101562 37.15625 35.148438 38.359375 35.148438 C 39.566406 35.148438 40.542969 36.101562 40.539062 37.273438 Z M 40.539062 37.273438 "/>
<path style=" stroke:none;fill-rule:nonzero;fill:url(#linear6);" d="M 38.207031 35.828125 C 36.484375 35.867188 36.414062 38.617188 38.164062 38.710938 C 40.214844 38.96875 40.632812 35.808594 38.207031 35.828125 Z M 38.207031 35.828125 "/>
<path style=" stroke:none;fill-rule:nonzero;fill:url(#linear7);" d="M 23.605469 25.269531 C 36.105469 13.15625 37.128906 11.742188 37.175781 11.148438 C 37.324219 9.308594 37.472656 8.839844 39.417969 7.800781 C 41.695312 6.585938 43.460938 5.863281 43.5625 6.074219 C 43.664062 6.328125 45.164062 7.464844 45.125 8.015625 C 45.085938 8.570312 43.367188 11.90625 42.550781 13.128906 C 41.726562 14.363281 41.90625 13.460938 39.925781 13.855469 C 39.269531 13.984375 38.882812 14.605469 25.996094 27.445312 "/>
<path style=" stroke:none;fill-rule:nonzero;fill:url(#linear8);" d="M 43.199219 6.773438 C 41.480469 7.667969 39.140625 8.125 38.054688 9.804688 C 38.125 11.625 36.941406 12.964844 35.714844 14.160156 C 32.113281 17.949219 28.335938 21.601562 24.574219 25.253906 C 25.191406 26.480469 24.734375 26.042969 26.214844 26.0625 C 29.753906 22.75 35.265625 16.335938 39 13.296875 C 40 12.769531 41.964844 13.699219 42.324219 12.242188 C 42.964844 10.816406 44.230469 8.921875 44.398438 7.667969 C 44.0625 7.335938 43.597656 6.960938 43.199219 6.773438 Z M 43.199219 6.773438 "/>
<path style=" stroke:none;fill-rule:evenodd;fill:url(#linear9);" d="M 43.585938 7.066406 L 44.253906 7.722656 C 44.253906 7.722656 42.410156 10.992188 41.753906 11.648438 C 41.164062 12.238281 39.398438 11.648438 39.398438 11.648438 C 39.398438 11.648438 39.136719 9.785156 39.527344 9.425781 C 39.996094 8.996094 43.585938 7.066406 43.585938 7.066406 Z M 43.585938 7.066406 "/>
<path style=" stroke:none;fill-rule:nonzero;fill:rgb(54.509804%,12.156863%,12.156863%);fill-opacity:1;" d="M 28.820312 28.851562 C 28.484375 29.554688 28.171875 30.445312 27.628906 31.496094 C 25.722656 31.710938 25.476562 30.882812 23.839844 33.292969 C 23.617188 33.292969 23.148438 34.152344 21.839844 35.839844 C 18.621094 39.988281 14.207031 44.460938 11.875 45.933594 C 9.164062 47.644531 7.570312 47.582031 5.757812 45.691406 C 4.988281 44.890625 4.257812 43.882812 4.128906 43.457031 C 3.449219 41.160156 8.25 35.269531 15.347656 29.679688 C 19.46875 27 19.765625 26.664062 19.050781 23.597656 C 20.035156 22.957031 20.5625 23.046875 22.363281 22.34375 "/>
<path style=" stroke:none;fill-rule:nonzero;fill:url(#linear10);" d="M 6.238281 44.878906 C 5.574219 44.125 4.796875 43.335938 4.796875 42.984375 C 4.796875 40.578125 9.410156 35.339844 15.839844 30.441406 C 19.425781 27.710938 20.335938 26.75 20.335938 24.542969 C 20.335938 24.109375 20.761719 23.652344 21.398438 23.410156 C 22.394531 23.03125 22.15625 23.296875 24.816406 26.019531 C 27.296875 28.558594 27.839844 28.910156 27.542969 29.714844 C 27.355469 30.21875 27.113281 30.742188 26.703125 30.753906 C 23.628906 30.824219 24.4375 30.722656 22.175781 33.664062 C 18.953125 37.851562 13.574219 43.636719 11.421875 45.023438 C 9.015625 46.570312 7.292969 46.027344 6.238281 44.878906 Z M 6.238281 44.878906 "/>
<path style=" stroke:none;fill-rule:nonzero;fill:url(#linear11);" d="M 14.101562 41.777344 C 16.632812 39.207031 21.808594 32.101562 24.269531 29.351562 C 25.214844 28.292969 26.023438 28.492188 25.925781 28.265625 C 25.597656 27.503906 22.507812 24.804688 21.566406 23.988281 C 21.34375 23.796875 21.183594 24.625 21.113281 25.046875 C 20.761719 27.199219 20.445312 27.195312 17.324219 29.699219 C 10.769531 34.960938 5.488281 40.621094 5.488281 42.597656 C 5.488281 43.519531 7.058594 44.917969 8.003906 44.945312 C 8.238281 44.949219 9.683594 46.261719 14.101562 41.777344 Z M 14.101562 41.777344 "/>
</g>
</svg>
